<?xml version="1.0" encoding="UTF-8"?>
<svg width="96px" height="96px" enable-background="new 0 0 96 96" version="1.1" viewBox="0 0 96 96" xml:space="preserve" xmlns="http://www.w3.org/2000/svg"><style/><defs><linearGradient id="a" x1="21.772" x2="75.409" y1="88.956" y2="-10.852" gradientUnits="userSpaceOnUse"><stop stop-color="#06191c" offset="0"/><stop stop-color="#0e323b" offset="1"/></linearGradient></defs><path d="m88 48.522c-0.11326 10.299-0.85563 21.623-7.7482 29.889-6.9742 8.0115-18.18 9.6496-28.21 10.042-10.557 0.17719-21.921 0.01925-31.215-5.6597-8.5982-5.2936-11.667-15.73-12.443-25.227-0.70115-10.793-0.85088-22.115 3.2792-32.306 3.1826-8.2109 11.164-13.477 19.563-15.157 10.326-2.1022 21.081-2.0706 31.471-0.42933 8.5082 1.3747 17.081 5.8452 20.875 13.951 3.8005 7.6735 4.3603 16.479 4.4287 24.896z" enable-background="new    " opacity=".28526"/><path d="m88 47.522c-0.04869 10.468-0.94916 21.964-8.0782 30.26-7.1919 7.748-18.349 9.4281-28.41 9.6802-11.281 0.21719-23.648-0.16281-32.994-7.3299-8.0912-6.8738-10.189-18.089-10.383-28.193-0.43721-11.443-0.0023765-23.945 6.9698-33.576 6.6723-8.1246 17.748-10.403 27.756-10.699 10.669-0.48277 21.978-0.039287 31.585 5.1137 7.3819 4.3708 11.517 12.613 12.565 20.921 0.77064 4.564 0.94316 9.2027 0.98964 13.823z" fill="url(#a)"/><path d="m48 7.522c-10.299 0.11307-21.623 0.8571-29.888 7.7503-8.0108 6.9742-9.6504 18.179-10.043 28.209-0.17723 10.557-0.019052 21.922 5.6603 31.215 5.2939 8.5979 15.73 11.666 25.227 12.443 10.794 0.70093 22.116 0.85095 32.308-3.2788 8.2109-3.182 13.476-11.164 15.155-19.563 2.1012-10.326 2.0699-21.08 0.429-31.47-1.3744-8.508-5.8442-17.081-13.95-20.875-7.6739-3.8013-16.48-4.3613-24.898-4.4297zm0 79c-10.066-0.1211-21.137-0.75114-29.247-7.4634-7.8182-6.813-9.3059-17.786-9.6876-27.563-0.14945-10.592-0.081583-22.073 5.9005-31.275 5.5459-8.2788 15.98-10.788 25.334-11.432 10.478-0.50885 21.504-0.66492 31.307 3.6064 7.9694 3.345 12.655 11.449 14.095 19.67 1.786 10.182 1.786 20.731 0 30.913-1.4405 8.2207-6.1256 16.325-14.095 19.67-7.3644 3.3284-15.642 3.8118-23.608 3.8737z" enable-background="new    " fill="#06191d" opacity=".11218"/><path d="m40.336 28.031-14.872 39.938h4.3425l14.895-39.938zm22.11 8.9198c-2.7539-0.02828-5.4806 1.2717-7.508 3.1402v-2.4975h-6.12v24.48h6.12c0.03523-4.5225-0.08868-9.0486 0.10547-13.568 0.06346-2.9653 2.3095-6.2661 5.58-5.9273 2.2988 0.03037 3.6758 2.3311 3.6745 4.4297 0.29207 5.0148 0.10436 10.044 0.1575 15.065h6.075c-0.02076-5.734 0.04213-11.47-0.03375-17.203-0.01372-3.2908-2.1513-6.4078-5.3128-7.4208-0.89926-0.33266-1.82-0.4898-2.738-0.49922z" fill="#fff" fill-opacity=".95984" stroke-width=".72"/></svg>
